<?xml version="1.0" encoding="utf-8"?>
<svg
    version="1.1"
    xmlns="http://www.w3.org/2000/svg"
    viewBox="0 0 33 33"
>
<path
    d="
        M27.649,33
        h-7.216
        c-0.276,0-0.5-0.224-0.5-0.5
        V22.32
        h-6.867
        V32.5
        c0,0.276-0.224,0.5-0.5,0.5
        H5.348
        c-0.276,0-0.5-0.224-0.5-0.5
        V15.893
        H0.73
        c-0.205,0-0.389-0.125-0.465-0.315
        c-0.075-0.19-0.027-0.407,0.121-0.548
        L16.154,0.137
        c0.193-0.183,0.494-0.182,0.688,0
        l15.772,14.893
        c0.148,0.141,0.196,0.358,0.121,0.548
        c-0.076,0.19-0.26,0.315-0.465,0.315
        h-4.121
        V32.5
        C28.149,32.776,27.925,33,27.649,33
        z

        M20.933,32
        h6.216
        V15.393
        c0-0.276,0.224-0.5,0.5-0.5
        h3.363
        L16.498,1.188
        L1.988,14.893
        h3.36
        c0.276,0,0.5,0.224,0.5,0.5
        V32
        h6.218
        V21.82
        c0-0.276,0.224-0.5,0.5-0.5
        h7.867
        c0.276,0,0.5,0.224,0.5,0.5
        V32
        z
    "
/>
</svg>
